<svg width="16" height="16" viewBox="0 0 16 16" fill="none" xmlns="http://www.w3.org/2000/svg"><path fill-rule="evenodd" clip-rule="evenodd" d="M5.2 1.5H5.1786H5.17859C4.6367 1.5 4.19963 1.49999 3.84569 1.52891C3.48126 1.55868 3.16117 1.62159 2.86502 1.77248C2.39462 2.01217 2.01217 2.39462 1.77248 2.86502C1.62159 3.16117 1.55868 3.48126 1.52891 3.84569C1.49999 4.19963 1.5 4.6367 1.5 5.17859V5.1786V5.2V10.8V10.8214C1.5 11.3633 1.49999 11.8004 1.52891 12.1543C1.55868 12.5187 1.62159 12.8388 1.77248 13.135C2.01217 13.6054 2.39462 13.9878 2.86502 14.2275C3.16117 14.3784 3.48126 14.4413 3.84569 14.4711C4.19961 14.5 4.63667 14.5 5.17853 14.5H5.17858H5.2H6H10.8H10.8214H10.8215C11.3633 14.5 11.8004 14.5 12.1543 14.4711C12.5187 14.4413 12.8388 14.3784 13.135 14.2275C13.6054 13.9878 13.9878 13.6054 14.2275 13.135C14.3784 12.8388 14.4413 12.5187 14.4711 12.1543C14.5 11.8004 14.5 11.3633 14.5 10.8215V10.8214V10.8V5.2V5.17858V5.17853C14.5 4.63667 14.5 4.19961 14.4711 3.84569C14.4413 3.48126 14.3784 3.16117 14.2275 2.86502C13.9878 2.39462 13.6054 2.01217 13.135 1.77248C12.8388 1.62159 12.5187 1.55868 12.1543 1.52891C11.8004 1.49999 11.3633 1.5 10.8214 1.5H10.8H6H5.2ZM10.8 13.5H6.5V2.5H10.8C11.3683 2.5 11.7645 2.50039 12.0729 2.52559C12.3755 2.55031 12.5493 2.5964 12.681 2.66349L12.9065 2.22095L12.681 2.66349C12.9632 2.8073 13.1927 3.03677 13.3365 3.31901C13.4036 3.45069 13.4497 3.62454 13.4744 3.92712C13.4996 4.23554 13.5 4.6317 13.5 5.2V10.8C13.5 11.3683 13.4996 11.7645 13.4744 12.0729C13.4497 12.3755 13.4036 12.5493 13.3365 12.681C13.1927 12.9632 12.9632 13.1927 12.681 13.3365C12.5493 13.4036 12.3755 13.4497 12.0729 13.4744C11.7645 13.4996 11.3683 13.5 10.8 13.5ZM5.5 13.5V2.5H5.2C4.6317 2.5 4.23554 2.50039 3.92712 2.52559C3.62454 2.55031 3.45069 2.5964 3.31901 2.66349C3.03677 2.8073 2.8073 3.03677 2.66349 3.31901C2.5964 3.45069 2.55031 3.62454 2.52559 3.92712C2.50039 4.23554 2.5 4.6317 2.5 5.2V10.8C2.5 11.3683 2.50039 11.7645 2.52559 12.0729C2.55031 12.3755 2.5964 12.5493 2.66349 12.681L2.21947 12.9072L2.66349 12.681C2.8073 12.9632 3.03677 13.1927 3.31901 13.3365C3.45069 13.4036 3.62454 13.4497 3.92712 13.4744C4.23554 13.4996 4.6317 13.5 5.2 13.5H5.5ZM10.9 6.3C11.0657 6.07909 11.0209 5.76569 10.8 5.6C10.5791 5.43431 10.2657 5.47909 10.1 5.7L8.6 7.7L8.375 8L8.6 8.3L10.1 10.3C10.2657 10.5209 10.5791 10.5657 10.8 10.4C11.0209 10.2343 11.0657 9.92091 10.9 9.7L9.625 8L10.9 6.3Z" fill="#A4A7AE"></path></svg>